<svg class="animated" id="freepik_stories-learning" xmlns="http://www.w3.org/2000/svg" viewBox="0 0 500 500" version="1.1" xmlns:xlink="http://www.w3.org/1999/xlink" xmlns:svgjs="http://svgjs.com/svgjs"><style>svg#freepik_stories-learning:not(.animated) .animable {opacity: 0;}svg#freepik_stories-learning.animated #freepik--Shadow--inject-2 {animation: 1s 1 forwards ease-in lightSpeedLeft,1.5s Infinite  linear spin;animation-delay: 0s,1s;}svg#freepik_stories-learning.animated #freepik--Books--inject-2 {animation: 1s 1 forwards cubic-bezier(.36,-0.01,.5,1.38) zoomIn;animation-delay: 0s;}            @keyframes lightSpeedLeft {              from {                transform: translate3d(-50%, 0, 0) skewX(20deg);                opacity: 0;              }              60% {                transform: skewX(-10deg);                opacity: 1;              }              80% {                transform: skewX(2deg);              }              to {                opacity: 1;                transform: translate3d(0, 0, 0);              }            }                 @keyframes spin {             from {                 transform: rotate(0);               }               to {                 transform: rotate(360deg);               }         }                 @keyframes zoomIn {                0% {                    opacity: 0;                    transform: scale(0.5);                }                100% {                    opacity: 1;                    transform: scale(1);                }            }        </style><g id="freepik--Shadow--inject-2" class="animable animator-active" style="transform-origin: 250px 416.24px;"><ellipse id="freepik--path--inject-2" cx="250" cy="416.24" rx="193.89" ry="11.32" style="fill: rgb(245, 245, 245); transform-origin: 250px 416.24px;" class="animable"></ellipse></g><g id="freepik--Books--inject-2" class="animable" style="transform-origin: 248.219px 363.687px;"><path d="M230.13,413.62a2,2,0,0,1-2,2.62H88.83c-4.35,0-4.35-28.33,0-28.33H228.17a2,2,0,0,1,2,2.61C228.43,395.92,228.43,408.23,230.13,413.62Z" style="fill: rgb(9, 74, 118); transform-origin: 157.917px 402.075px;" id="el4jcecdg8o2j" class="animable"></path><g id="eldkui6gaqllg"><path d="M229.93,391.22H145.4c-3.33,0-3.33,21.71,0,21.71h84.53C228.5,407.48,228.5,396.66,229.93,391.22Z" style="fill: rgb(255, 255, 255); opacity: 0.8; transform-origin: 186.416px 402.075px;" class="animable"></path></g><g id="elpwzws6xmpkg"><path d="M141.19,413.62a2,2,0,0,1-2,2.62H88.83c-4.35,0-4.35-28.33,0-28.33h50.4a2,2,0,0,1,2,2.61C139.49,395.92,139.49,408.23,141.19,413.62Z" style="opacity: 0.2; transform-origin: 113.447px 402.075px;" class="animable"></path></g><path d="M110.31,387.91H98.8c-4.35,0-4.35,28.33,0,28.33h11.51C106,416.24,106,387.91,110.31,387.91Z" style="fill: rgb(9, 74, 118); transform-origin: 102.924px 402.075px;" id="elsdu5nuo0z3h" class="animable"></path><path d="M119.38,387.91h-4.52c-4.35,0-4.35,28.33,0,28.33h4.52C115,416.24,115,387.91,119.38,387.91Z" style="fill: rgb(9, 74, 118); transform-origin: 115.489px 402.075px;" id="el3ewcq6gx2dq" class="animable"></path><path d="M80.71,385.56c-.48,1.16.7,2.35,2.3,2.35H208.29c5.11,0,5.11-25.47,0-25.47H83c-1.6,0-2.78,1.18-2.3,2.35C82.7,369.64,82.7,380.71,80.71,385.56Z" style="fill: rgb(38, 50, 56); transform-origin: 146.357px 375.175px;" id="elckvu3mpwtks" class="animable"></path><g id="eln74pbaj72kn"><path d="M80.71,385.56c-.48,1.16.7,2.35,2.3,2.35h61.43c5.11,0,5.11-25.47,0-25.47H83c-1.6,0-2.78,1.18-2.3,2.35C82.7,369.64,82.7,380.71,80.71,385.56Z" style="opacity: 0.2; transform-origin: 114.432px 375.175px;" class="animable"></path></g><g id="elqsdpwzm04ge"><path d="M80.93,365.41h61c3.91,0,3.91,19.52,0,19.52h-61C82.61,380,82.61,370.31,80.93,365.41Z" style="fill: rgb(255, 255, 255); opacity: 0.8; transform-origin: 112.896px 375.17px;" class="animable"></path></g><g id="el9e68zj1i0qa"><path d="M162.19,368.12c-.38-1.13.72-2.23,2.24-2.23H199.5c3.72,0,3.72,18.56,0,18.56H164.43c-1.52,0-2.62-1.09-2.24-2.22A28.1,28.1,0,0,0,162.19,368.12Z" style="fill: rgb(255, 255, 255); opacity: 0.2; transform-origin: 182.202px 375.17px;" class="animable"></path></g><path d="M415.73,374.19a2.33,2.33,0,0,1-2.07,3.05H266.46c-4.6,0-4.6-33,0-33h147.2a2.33,2.33,0,0,1,2.07,3C413.94,353.59,413.94,367.92,415.73,374.19Z" style="fill: rgb(9, 74, 118); transform-origin: 339.428px 360.74px;" id="elndi54crfbp" class="animable"></path><g id="elbzojxv6x93r"><path d="M415.73,374.19a2.33,2.33,0,0,1-2.07,3.05H266.46c-4.6,0-4.6-33,0-33h147.2a2.33,2.33,0,0,1,2.07,3C413.94,353.59,413.94,367.92,415.73,374.19Z" style="fill: rgb(255, 255, 255); opacity: 0.5; transform-origin: 339.428px 360.74px;" class="animable"></path></g><g id="eliefgzbmehtr"><path d="M415.53,348.12H326.22c-3.52,0-3.52,25.26,0,25.26h89.31C414,367.05,414,354.46,415.53,348.12Z" style="fill: rgb(255, 255, 255); opacity: 0.8; transform-origin: 369.555px 360.75px;" class="animable"></path></g><g id="el04xrsb8jjqe2"><path d="M321.77,374.19a2.33,2.33,0,0,1-2.07,3.05H266.46c-4.6,0-4.6-33,0-33H319.7a2.33,2.33,0,0,1,2.07,3C320,353.59,320,367.92,321.77,374.19Z" style="fill: rgb(9, 74, 118); opacity: 0.6; transform-origin: 292.448px 360.74px;" class="animable"></path></g><g id="elx4153x593y"><path d="M300.17,346.71a1.78,1.78,0,0,0-1.5-2.44h-20.3c-4.6,0-4.6,33,0,33h20.3a1.79,1.79,0,0,0,1.5-2.45C298.12,368.69,298.12,352.82,300.17,346.71Z" style="fill: rgb(255, 255, 255); opacity: 0.5; transform-origin: 287.61px 360.77px;" class="animable"></path></g><path d="M405.17,412.61a2.86,2.86,0,0,1-2.94,3.6l-152.94,0c-6.53,0-6.54-39,0-39l153,0a2.86,2.86,0,0,1,2.94,3.6C402.62,388.24,402.63,405.19,405.17,412.61Z" style="fill: rgb(9, 74, 118); transform-origin: 324.859px 396.71px;" id="elibxw4ynvpn" class="animable"></path><g id="el2zpkxvcb3g2"><path d="M405.17,412.61a2.86,2.86,0,0,1-2.94,3.6l-152.94,0c-6.53,0-6.54-39,0-39l153,0a2.86,2.86,0,0,1,2.94,3.6C402.62,388.24,402.63,405.19,405.17,412.61Z" style="fill: rgb(255, 255, 255); opacity: 0.2; transform-origin: 324.859px 396.71px;" class="animable"></path></g><g id="elfzkvbkl4qtm"><path d="M404.87,381.77l-92.47,0c-5,0-5,29.88,0,29.88l92.48,0C402.74,404.16,402.74,389.27,404.87,381.77Z" style="fill: rgb(255, 255, 255); opacity: 0.8; transform-origin: 356.765px 396.71px;" class="animable"></path></g><g id="el5wkfryb3q3"><path d="M306.08,412.63a2.85,2.85,0,0,1-2.93,3.6H249.29c-6.53,0-6.54-39,0-39h53.86a2.86,2.86,0,0,1,2.94,3.6C303.54,388.26,303.54,405.2,306.08,412.63Z" style="fill: rgb(9, 74, 118); opacity: 0.6; transform-origin: 275.289px 396.73px;" class="animable"></path></g><g id="elyle5d1tplk"><path d="M273.82,378.59a.9.9,0,0,0-.86-1.35h-9.15c-6.52,0-6.52,39,0,39H273a.9.9,0,0,0,.86-1.35C269.89,408.86,269.89,384.61,273.82,378.59Z" style="fill: rgb(255, 255, 255); opacity: 0.5; transform-origin: 266.451px 396.74px;" class="animable"></path></g><g id="el10pv1hz8o5jg"><path d="M288.1,378.59a.91.91,0,0,0-.86-1.36h-9.15c-6.52,0-6.52,39,0,39h9.15a.9.9,0,0,0,.85-1.35C284.17,408.86,284.17,384.6,288.1,378.59Z" style="fill: rgb(255, 255, 255); opacity: 0.5; transform-origin: 280.71px 396.73px;" class="animable"></path></g><path d="M403.67,323.52a24.31,24.31,0,0,0-1.93-8.06l.9-.44a25.3,25.3,0,0,1,2,8.4Z" style="fill: rgb(9, 74, 118); transform-origin: 403.19px 319.27px;" id="elrzd34vi4ff" class="animable"></path><rect x="372.56" y="311.13" width="24.84" height="1" style="fill: rgb(9, 74, 118); transform-origin: 384.98px 311.63px;" id="eljwegfzjk4b" class="animable"></rect><path d="M235.51,341.54c-.51,1.36.74,2.73,2.43,2.73H397.4c5.39,0,5.39-29.64,0-29.64H237.94c-1.69,0-2.94,1.38-2.43,2.74C237.61,323,237.61,335.89,235.51,341.54Z" style="fill: rgb(9, 74, 118); transform-origin: 318.419px 329.45px;" id="ell44lo8oke5c" class="animable"></path><g id="elfwk40b6hbir"><path d="M235.51,341.54c-.51,1.36.74,2.73,2.43,2.73h92c5.4,0,5.4-29.64,0-29.64h-92c-1.69,0-2.94,1.38-2.43,2.74C237.61,323,237.61,335.89,235.51,341.54Z" style="opacity: 0.2; transform-origin: 284.692px 329.45px;" class="animable"></path></g><g id="el2kf02vm0n34"><path d="M235.75,318.1h91.52c4.14,0,4.14,22.71,0,22.71H235.75C237.52,335.11,237.52,323.8,235.75,318.1Z" style="fill: rgb(255, 255, 255); opacity: 0.8; transform-origin: 283.062px 329.455px;" class="animable"></path></g><g id="elbckb1t63319"><path d="M348.69,321.24c-.4-1.31.76-2.58,2.36-2.58h37.06c3.93,0,3.93,21.59,0,21.59H351.05c-1.6,0-2.76-1.27-2.36-2.59C350,333.51,350,325.4,348.69,321.24Z" style="fill: rgb(255, 255, 255); opacity: 0.2; transform-origin: 369.834px 329.455px;" class="animable"></path></g></g><g id="freepik--Character--inject-2" class="animable" style="transform-origin: 234.534px 224.057px;"><path d="M220.6,98c-4.51,4.83-15.52,0-17.2,13.3-1.82,14.34,5.08,21.23-3.83,25-14,5.85-24,29.23-4.56,38s60.84-.42,56.18-18.29-3.74-27.46,1.76-35.88c7.25-11.13,5.7-25.43-.21-30.61C243.54,81.42,230.83,87,220.6,98Z" style="fill: rgb(38, 50, 56); transform-origin: 220.993px 131.667px;" id="el3wvxlw9atf" class="animable"></path><path d="M244.66,155.53a.3.3,0,0,1-.31-.27.3.3,0,0,1,.26-.35c3.86-.53,6.16-1.48,7.24-3,1.34-1.89.76-4.7,0-8.26-1.18-5.79-2.81-13.72,2.39-23.74,6.31-12.15,4-25.47-1.91-29.83a.31.31,0,0,1-.07-.43.32.32,0,0,1,.44-.07c6.16,4.51,8.54,18.19,2.09,30.62-5.09,9.82-3.49,17.63-2.33,23.33.76,3.7,1.36,6.63-.14,8.74-1.18,1.67-3.61,2.7-7.65,3.26Z" style="fill: rgb(38, 50, 56); transform-origin: 251.482px 122.526px;" id="el17wnmsp8hys" class="animable"></path><path d="M194.24,138.21a16,16,0,0,1-1.89-.12.31.31,0,0,1-.27-.35.31.31,0,0,1,.35-.27c2.84.35,4.9-.07,6.29-1.29,2.6-2.29,2.64-7.08,2.67-12.63,0-6.28.09-13.39,4.16-18.24a.31.31,0,1,1,.48.4c-3.93,4.68-4,11.67-4,17.85,0,5.69-.07,10.61-2.88,13.09A7.14,7.14,0,0,1,194.24,138.21Z" style="fill: rgb(38, 50, 56); transform-origin: 199.09px 121.711px;" id="eluwh7apc1agn" class="animable"></path><path d="M292.39,314.61c-6.67-.08-9.29-.5-12.36-.45s-3.8.59-7,.45c-2.16-.09-2.17-2.66-1.34-4.42.65-1.38,1.45-2.77,2.19-4.49l8.46.62c1.14,3.22,6.8,4.6,11.76,5.74C296.07,312.53,295.06,314.64,292.39,314.61Z" style="fill: rgb(9, 74, 118); transform-origin: 283.155px 310.167px;" id="elwe8prr0npvf" class="animable"></path><path d="M248.28,191.76s22.38,19.25,45,39.67c9.56,8.65-10.49,74.6-10.49,74.6-.42,1.41-7.88-.6-9-1.71,0,0-1.14-51.19,3.71-61.5-50.16-12.68-58-37.31-58-37.31l3.6-15.28Z" style="fill: rgb(38, 50, 56); transform-origin: 257.682px 248.372px;" id="el4x74n0sxbuc" class="animable"></path><g id="elrj8eiouqe6"><path d="M222.81,211.58a53.37,53.37,0,0,0,9.89,10.48c5-5.85,3.6-15.3,3.6-15.3Z" style="opacity: 0.2; transform-origin: 229.645px 214.41px;" class="animable"></path></g><path d="M284.53,303.18c-.14,1-.38,2.77-.51,4.08a.84.84,0,0,1-.86.76,53.66,53.66,0,0,1-9.9-1.72.75.75,0,0,1-.55-.71l-.07-3.65a.85.85,0,0,1,.93-.85l10.32,1.25A.73.73,0,0,1,284.53,303.18Z" style="fill: rgb(38, 50, 56); transform-origin: 278.59px 304.553px;" id="elfjsyskekwpj" class="animable"></path><g id="el54z53bym7pu"><path d="M284.53,303.18c-.14,1-.38,2.77-.51,4.08a.84.84,0,0,1-.86.76,53.66,53.66,0,0,1-9.9-1.72.75.75,0,0,1-.55-.71l-.07-3.65a.85.85,0,0,1,.93-.85l10.32,1.25A.73.73,0,0,1,284.53,303.18Z" style="fill: rgb(255, 255, 255); opacity: 0.3; transform-origin: 278.59px 304.553px;" class="animable"></path></g><path d="M194.47,362.44c-6.78,0-9-2.55-12.79-3.25-3.2-.6-4.05-.32-6.63-.77-2.16-.38-2.33-1.86-1-4.05a30.48,30.48,0,0,0,2.2-4.74l10.28.68c1.07,2.75,3.54,8.34,7.31,9C197.39,360,197.17,362.44,194.47,362.44Z" style="fill: rgb(9, 74, 118); transform-origin: 184.853px 356.035px;" id="eligufs3ydv7a" class="animable"></path><path d="M246.73,191.7s-23.65,42.05-33.17,68.06c-10,27.32-25.92,72-27.07,90.55-1.7.81-7.28.5-10.28-.68,0,0-2.78-64,16.47-89.64,4.59-54.91,12.21-63.69,20.31-70.38Z" style="fill: rgb(38, 50, 56); transform-origin: 211.4px 270.186px;" id="elyv0rk9j6uq8" class="animable"></path><path d="M187.73,346.52a27.08,27.08,0,0,0-.1,3.81.84.84,0,0,1-.78.89c-3.83.35-9.17-.88-10.86-1.3a.74.74,0,0,1-.56-.7l-.13-3.58a.85.85,0,0,1,.91-.86l10.84.93A.74.74,0,0,1,187.73,346.52Z" style="fill: rgb(38, 50, 56); transform-origin: 181.517px 348.03px;" id="elflgjbkusvru" class="animable"></path><g id="el2loq94ykmfr"><path d="M187.73,346.52a27.08,27.08,0,0,0-.1,3.81.84.84,0,0,1-.78.89c-3.83.35-9.17-.88-10.86-1.3a.74.74,0,0,1-.56-.7l-.13-3.58a.85.85,0,0,1,.91-.86l10.84.93A.74.74,0,0,1,187.73,346.52Z" style="fill: rgb(255, 255, 255); opacity: 0.3; transform-origin: 181.517px 348.03px;" class="animable"></path></g><path d="M253,150.45c1,1.89,2.08,4,3.18,6s2.21,4,3.33,5.95c2.26,3.93,4.62,7.78,7.15,11.41l-1.36-1.21a11.93,11.93,0,0,0,3.28,1.62,28.1,28.1,0,0,0,4.34,1.08c1.54.28,3.14.47,4.77.62s3.34.24,4.9.34h.21a2.8,2.8,0,0,1,.73,5.45,38.11,38.11,0,0,1-5.47,1.38,41.59,41.59,0,0,1-5.64.61,30.62,30.62,0,0,1-6-.36,19.89,19.89,0,0,1-6.4-2.12,3.83,3.83,0,0,1-1.09-.89l-.27-.32c-1.59-1.9-3.14-3.84-4.56-5.83s-2.81-4-4.1-6-2.54-4.13-3.72-6.24-2.3-4.2-3.37-6.51a5.6,5.6,0,0,1,10-5Z" style="fill: rgb(255, 181, 115); transform-origin: 263.949px 165.675px;" id="elm4w5tfhkcjk" class="animable"></path><path d="M247.48,142.38c6.53,2.15,7.59,5.08,11.17,15.9-2.38,6.49-12,9.78-12,9.78S235.29,149.56,247.48,142.38Z" style="fill: rgb(9, 74, 118); transform-origin: 250.244px 155.22px;" id="elos7b0ao8ggm" class="animable"></path><path d="M256.42,156.46c-.37,3.58-1.29,7.85-3.22,16.24-1.5,7.12-1.52,21-3.92,21.73-4.61,2.28-16.15,1.4-36.29-4.82.64-10.4,1.85-17.46-1.61-41.32a8.54,8.54,0,0,1,8.7-10c1.46,0,3,.12,4.57.26a115.49,115.49,0,0,1,16.48,2.19c1.77.4,3.6.87,5.34,1.35A13.78,13.78,0,0,1,256.42,156.46Z" style="fill: rgb(9, 74, 118); transform-origin: 233.86px 166.931px;" id="ela69xvi864cm" class="animable"></path><path d="M185.92,197.82l2-1.83a3.15,3.15,0,0,0,1-2.72l-.55-4.77a5.94,5.94,0,0,0-3-4.52l-1-.57c-3.57,2.81-5.36,8.47-5.36,8.47l-.69,1.56a2.64,2.64,0,0,0,1.27,3.54l3.07,1.4A3.05,3.05,0,0,0,185.92,197.82Z" style="fill: rgb(255, 181, 115); transform-origin: 183.502px 191.017px;" id="elckml56uyrqs" class="animable"></path><path d="M290.89,173.8l-2.56-1a3.16,3.16,0,0,0-2.89.34l-4,2.68a5.91,5.91,0,0,0-2.61,4.77l0,1.19c4.13,1.88,10,.86,10,.86l1.7-.1a2.65,2.65,0,0,0,2.56-2.76l-.16-3.37A3,3,0,0,0,290.89,173.8Z" style="fill: rgb(255, 181, 115); transform-origin: 285.961px 177.756px;" id="elw8ni5eqsxz" class="animable"></path><path d="M217.34,151.51l-1.28.59-1.4.64c-.93.45-1.85.92-2.77,1.4-1.85,1-3.65,2-5.42,3.05s-3.48,2.22-5.14,3.41-3.2,2.49-4.7,3.82l.66-.84a15.91,15.91,0,0,0-1.28,2.26c-.44.91-.85,1.9-1.25,2.91-.8,2-1.58,4.14-2.3,6.29s-1.45,4.33-2.16,6.51l-2.16,6.57v0a2.8,2.8,0,0,1-5.46-1c.11-2.41.33-4.75.6-7.11s.61-4.71,1-7.07.9-4.73,1.55-7.13c.32-1.2.67-2.4,1.11-3.66a23,23,0,0,1,1.78-4,4.25,4.25,0,0,1,.43-.59l.24-.25a56.48,56.48,0,0,1,5.28-5.11,63.49,63.49,0,0,1,5.78-4.37,66.36,66.36,0,0,1,6.15-3.7c1.06-.56,2.13-1.09,3.22-1.61.55-.25,1.09-.51,1.66-.75s1.09-.45,1.8-.72a5.59,5.59,0,0,1,4.32,10.31Z" style="fill: rgb(255, 181, 115); transform-origin: 201.811px 165.353px;" id="eluclzzgl7pna" class="animable"></path><path d="M227,140.89c-4.9-3.51-7.88-3.89-19.74,1.26-1.41,7.46,3.21,18.41,3.21,18.41S226.25,152.34,227,140.89Z" style="fill: rgb(9, 74, 118); transform-origin: 216.996px 149.412px;" id="eltao9tohuz69" class="animable"></path><path d="M228.28,120.11c.73,5.49,1.2,15.44-2.72,18.52,0,0,5.12-.09,14.91,7.92,3.67-4,1.57-5.73,1.57-5.73-5.83-2.21-5.42-6.62-4.15-10.65Z" style="fill: rgb(255, 181, 115); transform-origin: 234.099px 133.33px;" id="elpjzcpb7tdq" class="animable"></path><path d="M238.4,144.93c-3.57,0-5.38,5.19-5.38,5.19s-8.58-6.84-9.75-11.65a36,36,0,0,0,3.34-1.55S236.62,142.63,238.4,144.93Z" style="fill: rgb(255, 255, 255); transform-origin: 230.835px 143.52px;" id="elxqanvng4frc" class="animable"></path><path d="M241.82,144.8s2.7,1,3.59,5c1.83-7.62-1.74-8.82-1.74-8.82a4.5,4.5,0,0,0-3.12-.88A3.79,3.79,0,0,1,241.82,144.8Z" style="fill: rgb(255, 255, 255); transform-origin: 243.241px 144.94px;" id="el4s21lhisyff" class="animable"></path><g id="eldn7nk0xhxy7"><path d="M232.2,124.21l5.68,6a16.44,16.44,0,0,0-.67,2.88c-2.24-.63-5.2-3.54-5.3-6A7.9,7.9,0,0,1,232.2,124.21Z" style="opacity: 0.2; transform-origin: 234.881px 128.65px;" class="animable"></path></g><path d="M222.12,112.12c2,8.54,2.73,12.19,7.86,16.09,7.71,5.86,17.72,2.06,18.26-6.78.48-8-2.94-20.6-12-23A11.26,11.26,0,0,0,222.12,112.12Z" style="fill: rgb(255, 181, 115); transform-origin: 235.011px 114.487px;" id="elbnbjchja0bp" class="animable"></path><path d="M223.79,118.26c3.14-1.54,6.47-9.11,2-12.69,3.69.69,7.92-.3,11.83-3.32,5.1-4,12.61,5.93,10.14.1-3.56-8.4-14.29-10.5-24-3.52S214.74,114.3,223.79,118.26Z" style="fill: rgb(38, 50, 56); transform-origin: 232.491px 106.446px;" id="el85tzif4gw6k" class="animable"></path><path d="M221.13,116.55a.16.16,0,0,1-.06-.3c2.5-1.08,13.11-3.34,13.56-3.43a.15.15,0,0,1,.19.12.16.16,0,0,1-.12.18c-.11,0-11,2.35-13.51,3.42Z" style="fill: rgb(255, 255, 255); transform-origin: 227.904px 114.682px;" id="elgz2mfo9bkqr" class="animable"></path><g id="el07h5zcqgookm"><path d="M234,113a4.44,4.44,0,0,0-3.38-.08A8.76,8.76,0,0,0,234,113Z" style="opacity: 0.2; transform-origin: 232.31px 112.876px;" class="animable"></path></g><g id="elywgchv1ht5c"><path d="M233.91,113.76a3.66,3.66,0,0,0-3,.69A7.38,7.38,0,0,0,233.91,113.76Z" style="opacity: 0.2; transform-origin: 232.41px 114.066px;" class="animable"></path></g><path d="M235.86,112.88c.14.73.63,1.27,1.1,1.21s.73-.69.59-1.42-.64-1.26-1.1-1.21S235.72,112.16,235.86,112.88Z" style="fill: rgb(38, 50, 56); transform-origin: 236.705px 112.776px;" id="el7tga6283rr" class="animable"></path><path d="M244.64,111.93c.14.72.64,1.26,1.1,1.21s.73-.7.59-1.42-.63-1.27-1.1-1.21S244.5,111.2,244.64,111.93Z" style="fill: rgb(38, 50, 56); transform-origin: 245.485px 111.824px;" id="el91mup9y13w" class="animable"></path><path d="M245,110.58l1.62-.72S246,111.33,245,110.58Z" style="fill: rgb(38, 50, 56); transform-origin: 245.81px 110.327px;" id="elynl9qngf8f7" class="animable"></path><path d="M243,113.32a21.9,21.9,0,0,0,3.18,4.51,3,3,0,0,1-2.49.65Z" style="fill: rgb(237, 137, 62); transform-origin: 244.59px 115.926px;" id="elw47qqipzler" class="animable"></path><path d="M239.85,121.71a7.13,7.13,0,0,0,1.21,0,.2.2,0,0,0,.17-.24.23.23,0,0,0-.25-.19,6.15,6.15,0,0,1-5-1.67.21.21,0,0,0-.3,0,.22.22,0,0,0,0,.3A6.43,6.43,0,0,0,239.85,121.71Z" style="fill: rgb(38, 50, 56); transform-origin: 238.428px 120.641px;" id="elo5oszsop2x" class="animable"></path><path d="M220.09,119.77a6.06,6.06,0,0,0,4.17,2.53c2.08.17,2.53-2.25,1.47-4.4-.95-1.93-3.18-4.36-5-3.52S218.74,118,220.09,119.77Z" style="fill: rgb(255, 181, 115); transform-origin: 222.742px 118.259px;" id="elseh55ar6cv" class="animable"></path><path d="M233.05,107.37a.37.37,0,0,0,.29-.14,3.17,3.17,0,0,1,2.74-1.21.4.4,0,0,0,.46-.36.48.48,0,0,0-.39-.49,4,4,0,0,0-3.48,1.49.45.45,0,0,0,.38.71Z" style="fill: rgb(38, 50, 56); transform-origin: 234.564px 106.262px;" id="elstkotto4g7" class="animable"></path><path d="M246.26,107a.4.4,0,0,0,.3-.09.42.42,0,0,0,0-.6,4.51,4.51,0,0,0-3.62-1.7.39.39,0,0,0-.35.47.46.46,0,0,0,.48.39,3.59,3.59,0,0,1,2.86,1.37A.43.43,0,0,0,246.26,107Z" style="fill: rgb(38, 50, 56); transform-origin: 244.634px 105.806px;" id="el8odcn8swm88" class="animable"></path><path d="M238.57,117.41c-2.11,0-3.94-2.24-4.14-5.11a6.4,6.4,0,0,1,.89-3.87,3.54,3.54,0,0,1,2.71-1.79c2.21-.15,4.15,2.14,4.36,5.11s-1.42,5.5-3.61,5.65ZM238.24,107h-.18a3.27,3.27,0,0,0-2.48,1.65,6.07,6.07,0,0,0-.84,3.68c.19,2.79,2,4.94,4,4.81s3.51-2.53,3.32-5.32S240.19,107,238.24,107Z" style="fill: rgb(255, 255, 255); transform-origin: 238.406px 112.022px;" id="elkxdqio33voa" class="animable"></path><path d="M247.92,116.87c-2.11,0-3.95-2.23-4.15-5.1a6.47,6.47,0,0,1,.89-3.87,3.56,3.56,0,0,1,2.72-1.79c2.19-.15,4.15,2.14,4.35,5.1a6.47,6.47,0,0,1-.89,3.87,3.54,3.54,0,0,1-2.72,1.79Zm-.33-10.45h-.19a3.27,3.27,0,0,0-2.48,1.65,6.21,6.21,0,0,0-.84,3.68c.19,2.7,1.89,4.81,3.84,4.81h.18a3.24,3.24,0,0,0,2.48-1.65,6.12,6.12,0,0,0,.84-3.67C251.23,108.53,249.53,106.42,247.59,106.42Z" style="fill: rgb(255, 255, 255); transform-origin: 247.75px 111.487px;" id="el2elfitql004" class="animable"></path><path d="M244,112.18a.16.16,0,0,1-.13-.08c-.38-.6-1.49.05-1.5.05a.15.15,0,0,1-.21-.05.16.16,0,0,1,0-.21c.06,0,1.38-.82,1.92,0a.14.14,0,0,1-.05.21A.11.11,0,0,1,244,112.18Z" style="fill: rgb(255, 255, 255); transform-origin: 243.114px 111.853px;" id="el67vwe5ww024" class="animable"></path><path d="M236.25,111.53l1.61-.71S237.25,112.29,236.25,111.53Z" style="fill: rgb(38, 50, 56); transform-origin: 237.055px 111.284px;" id="elrtuu8iqylg" class="animable"></path></g><defs>     <filter id="active" height="200%">         <feMorphology in="SourceAlpha" result="DILATED" operator="dilate" radius="2"></feMorphology>                <feFlood flood-color="#32DFEC" flood-opacity="1" result="PINK"></feFlood>        <feComposite in="PINK" in2="DILATED" operator="in" result="OUTLINE"></feComposite>        <feMerge>            <feMergeNode in="OUTLINE"></feMergeNode>            <feMergeNode in="SourceGraphic"></feMergeNode>        </feMerge>    </filter>    <filter id="hover" height="200%">        <feMorphology in="SourceAlpha" result="DILATED" operator="dilate" radius="2"></feMorphology>                <feFlood flood-color="#ff0000" flood-opacity="0.5" result="PINK"></feFlood>        <feComposite in="PINK" in2="DILATED" operator="in" result="OUTLINE"></feComposite>        <feMerge>            <feMergeNode in="OUTLINE"></feMergeNode>            <feMergeNode in="SourceGraphic"></feMergeNode>        </feMerge>            <feColorMatrix type="matrix" values="0   0   0   0   0                0   1   0   0   0                0   0   0   0   0                0   0   0   1   0 "></feColorMatrix>    </filter></defs></svg>